<svg width="77" height="65" viewBox="0 0 77 65" fill="none" xmlns="http://www.w3.org/2000/svg">
<path d="M25.7925 29.3701L51.3969 38.5851V27.9798L25.7925 24.3986V29.3701ZM25.7925 21.8292L51.3969 24.6461V13.939L25.7925 16.7559V21.8292ZM25.7925 9.215V14.1864L51.3969 10.6053V0L25.7925 9.215Z" fill="black"/>
<path d="M0.151855 64.7015H8.06038V62.2995H3.06475V58.762H7.71083V56.3818H3.06475V53.3684H8.06038V50.981H0.151855V64.7015Z" fill="black"/>
<path d="M20.4839 57.4737C20.4839 58.2088 20.5276 59.4754 20.6223 61.2587H20.5568L14.5926 50.981H10.9224V64.7015H13.5221V58.2452C13.5221 57.4664 13.4639 56.1562 13.3401 54.3219H13.4275L19.3989 64.7015H23.0983V50.981H20.4767V57.4737H20.4839Z" fill="black"/>
<path d="M32.1429 50.7698C30.031 50.7698 28.4144 51.3739 27.2856 52.5749C26.1569 53.7759 25.5889 55.5229 25.5889 57.8084C25.5889 60.094 26.1496 61.8409 27.2783 63.0637C28.4071 64.2866 30.0238 64.8907 32.121 64.8907C34.2183 64.8907 35.8423 64.2793 36.9637 63.0637C38.0925 61.8409 38.6532 60.1012 38.6532 57.823C38.6532 55.5447 38.0925 53.7978 36.9783 52.5822C35.8641 51.3739 34.2475 50.7698 32.1429 50.7698ZM32.121 62.4523C30.9632 62.4523 30.0893 62.0665 29.514 61.2877C28.9314 60.5089 28.6401 59.3588 28.6401 57.823C28.6401 56.2871 28.9314 55.1371 29.5213 54.3582C30.1111 53.5794 30.985 53.1863 32.1429 53.1863C34.4514 53.1863 35.6092 54.7295 35.6092 57.823C35.602 60.9092 34.4441 62.4523 32.121 62.4523Z" fill="black"/>
<path d="M46.5033 59.1478C46.1028 60.589 45.8698 61.5935 45.797 62.1685C45.7605 61.921 45.6659 61.4697 45.5129 60.8292C45.36 60.1887 45.2144 59.6282 45.0687 59.1478L42.4835 50.981H39.5415L44.2021 64.7015H47.3772L52.0451 50.981H49.1031L46.5033 59.1478Z" fill="black"/>
<path d="M62.0436 59.3662C62.0436 60.4289 61.8324 61.2077 61.4027 61.71C60.9731 62.2049 60.2813 62.4524 59.3346 62.4524C58.3515 62.4524 57.6451 62.2049 57.2227 61.71C56.8004 61.215 56.5819 60.4434 56.5819 59.3807V50.981H53.6763V59.8247C53.6763 61.397 54.1642 62.6344 55.14 63.5369C56.1158 64.4395 57.4849 64.8908 59.2545 64.8908C60.4269 64.8908 61.4391 64.687 62.2985 64.2794C63.1578 63.8718 63.8132 63.2895 64.2647 62.5252C64.7162 61.7609 64.9419 60.8729 64.9419 59.8611V50.981H62.0436V59.3662Z" fill="black"/>
<path d="M75.6982 58.6237C75.2249 58.005 74.3437 57.3936 73.062 56.7822C72.0935 56.3163 71.4745 55.9961 71.2196 55.8214C70.9575 55.6394 70.7681 55.4574 70.6516 55.2682C70.5351 55.0789 70.4768 54.8533 70.4768 54.5985C70.4768 54.1836 70.6225 53.8488 70.9211 53.5941C71.2124 53.3393 71.6347 53.2083 72.1882 53.2083C72.6542 53.2083 73.1203 53.2665 73.6009 53.3902C74.0816 53.5067 74.686 53.7178 75.4215 54.0162L76.3609 51.7525C75.6545 51.4468 74.9773 51.2066 74.3292 51.0392C73.681 50.8718 73.0038 50.7844 72.2901 50.7844C70.841 50.7844 69.6977 51.1338 68.8748 51.8253C68.0519 52.5168 67.6368 53.4776 67.6368 54.6859C67.6368 55.3337 67.7606 55.8942 68.0155 56.3746C68.263 56.855 68.598 57.2771 69.0204 57.6411C69.4428 58.005 70.069 58.3835 70.9065 58.7766C71.8022 59.1988 72.3921 59.5117 72.6834 59.7083C72.9747 59.9048 73.1931 60.1013 73.3461 60.3124C73.499 60.5235 73.5718 60.7637 73.5718 61.033C73.5718 61.5134 73.4043 61.8774 73.062 62.1248C72.7198 62.3723 72.2319 62.4888 71.591 62.4888C71.0594 62.4888 70.4696 62.4014 69.8287 62.234C69.1879 62.0666 68.4014 61.7755 67.4766 61.3606V64.061C68.6053 64.6142 69.9016 64.8835 71.3653 64.8835C72.9528 64.8835 74.1981 64.5269 75.0865 63.8135C75.9749 63.1002 76.4264 62.1248 76.4264 60.8874C76.4119 59.9994 76.1716 59.2424 75.6982 58.6237Z" fill="black"/>
</svg>
