<svg width="131" height="21" viewBox="0 0 131 21" fill="none" xmlns="http://www.w3.org/2000/svg">
<path d="M14.07 14.0948C14.07 17.2948 11.86 20.6047 7.39002 20.6047C3.00002 20.6047 0.77002 17.4548 0.77002 14.2648C0.77002 10.6248 2.89002 8.91478 6.07002 7.39478C8.53002 6.20478 9.60002 5.65475 9.60002 4.36475C9.60002 3.39475 8.83002 2.82477 7.34002 2.82477C5.60002 2.82477 4.72002 3.48478 4.72002 4.64478C4.72002 4.97478 4.75003 5.22473 4.80003 5.47473L2.46002 6.05475C2.27002 5.64475 2.16003 5.19474 2.16003 4.67474C2.16003 2.35474 4.28002 0.894775 7.35002 0.894775C10.38 0.894775 12.29 2.35474 12.29 4.48474C12.29 6.11474 11.44 6.99475 9.83002 7.93475C11.78 9.01475 14.07 10.8148 14.07 14.0948ZM7.92002 8.88477L7.62003 9.02478C4.53003 10.4848 3.57002 11.7547 3.57002 14.2947C3.57002 16.6647 4.73002 18.4848 7.43002 18.4648C10.05 18.4348 11.24 16.6448 11.29 14.1348C11.34 11.3648 9.49002 9.79477 7.92002 8.88477Z" fill="white"/>
<path d="M30.4401 14.4848C30.4401 18.0448 28.0101 20.6048 24.1001 20.6048C20.2101 20.6048 17.8401 18.1448 17.8401 14.7548C17.8401 13.5148 18.1401 12.0548 19.0001 10.6748L21.2301 11.4248C20.8201 12.2848 20.5701 13.4348 20.5701 14.4548C20.5701 16.7448 21.6201 18.4548 24.1001 18.4548C26.7201 18.4548 27.6601 16.6348 27.6601 14.4248C27.6601 8.7448 22.4501 7.88484 22.4501 1.21484H25.1501C25.1401 6.94484 30.4401 8.2748 30.4401 14.4848Z" fill="white"/>
<path d="M47.4899 14.0948C47.4899 17.2948 45.2799 20.6047 40.8099 20.6047C36.4199 20.6047 34.1899 17.4548 34.1899 14.2648C34.1899 10.6248 36.3099 8.91478 39.4899 7.39478C41.9499 6.20478 43.0199 5.65475 43.0199 4.36475C43.0199 3.39475 42.2499 2.82477 40.7599 2.82477C39.0199 2.82477 38.1399 3.48478 38.1399 4.64478C38.1399 4.97478 38.1699 5.22473 38.2199 5.47473L35.8799 6.05475C35.6899 5.64475 35.5799 5.19474 35.5799 4.67474C35.5799 2.35474 37.6999 0.894775 40.7699 0.894775C43.7999 0.894775 45.7099 2.35474 45.7099 4.48474C45.7099 6.11474 44.8599 6.99475 43.2499 7.93475C45.1999 9.01475 47.4899 10.8148 47.4899 14.0948ZM41.3399 8.88477L41.0399 9.02478C37.9499 10.4848 36.9899 11.7547 36.9899 14.2947C36.9899 16.6647 38.1499 18.4848 40.8499 18.4648C43.4699 18.4348 44.6599 16.6448 44.7099 14.1348C44.7599 11.3648 42.9099 9.79477 41.3399 8.88477Z" fill="white"/>
<path d="M65.4299 13.7048C65.4299 17.7048 63.09 20.5447 58.95 20.5447C54.81 20.5447 52.49 17.8148 52.49 13.7848C52.49 12.4048 52.88 11.1647 53.57 10.1147C51.61 9.09475 49.96 7.71476 49.96 5.31476C49.96 2.97476 51.7299 0.874756 55.0399 0.874756C58.0699 0.874756 60.03 2.66477 60.03 4.82477C60.03 5.73477 59.75 6.50473 59.31 7.22473C59.53 7.19473 59.75 7.16473 59.97 7.16473C62.83 7.16473 65.4299 9.92477 65.4299 13.7048ZM52.57 5.29474C52.57 6.92474 53.67 8.02474 54.83 8.60474L55.49 8.05475C56.9 6.95475 57.45 6.15474 57.45 4.85474C57.45 3.61474 56.54 2.81476 55.02 2.81476C53.42 2.81476 52.57 3.85474 52.57 5.29474ZM62.64 13.7048C62.64 10.8948 61.43 9.07477 59.11 9.07477C58.45 9.07477 57.8099 9.18478 57.2599 9.40479C57.2099 9.43478 57.15 9.48474 57.09 9.54474C55.66 10.7547 55.27 12.1347 55.27 13.7347C55.27 16.7147 56.54 18.4548 58.94 18.4548C61.34 18.4548 62.64 16.7148 62.64 13.7048Z" fill="white"/>
<path d="M81.4601 14.4848C81.4601 18.0448 79.0301 20.6048 75.1101 20.6048C71.2201 20.6048 68.8501 18.1448 68.8501 14.7548C68.8501 13.5148 69.1501 12.0548 70.0101 10.6748L72.2401 11.4248C71.8301 12.2848 71.5801 13.4348 71.5801 14.4548C71.5801 16.7448 72.6301 18.4548 75.1101 18.4548C77.7301 18.4548 78.6701 16.6348 78.6701 14.4248C78.6701 8.7448 73.4601 7.88484 73.4601 1.21484H76.1601C76.1601 6.94484 81.4601 8.2748 81.4601 14.4848Z" fill="white"/>
<path d="M97.5199 14.8348C97.5199 17.9748 95.2599 20.6047 91.2299 20.6047C87.1799 20.5747 85.1599 18.1748 85.1599 15.3348C85.1599 14.4248 85.3499 13.4548 85.8499 12.4948L88.2199 13.1248C87.9999 13.6748 87.8599 14.3948 87.8599 15.1348C87.8599 17.0148 88.7699 18.4448 91.2299 18.4448C93.5499 18.4448 94.7299 16.9847 94.7299 14.8047C94.7299 12.5947 93.5399 11.1647 91.2299 11.1647H90.2899L90.6499 9.01477H91.3399C93.1599 9.01477 94.3799 7.99473 94.3799 5.97473C94.3799 4.29473 93.3299 3.02478 91.2599 3.02478C89.2199 3.02478 88.0899 4.15479 88.0899 5.78479C88.0899 6.19479 88.1699 6.66477 88.3399 7.13477L85.9399 7.74475C85.5799 7.00475 85.4199 6.28479 85.4199 5.59479C85.4199 2.94479 87.8799 0.874756 91.2699 0.874756C94.8299 0.874756 97.1199 3.05478 97.1199 5.89478C97.1199 8.01478 95.8499 9.59478 93.5099 10.0848C95.8899 10.5048 97.5199 12.0848 97.5199 14.8348Z" fill="white"/>
<path d="M114.46 13.2947C114.46 17.3547 112.39 20.6047 108.12 20.6047C103.93 20.6047 101.86 17.6548 101.86 13.5148V5.32477C101.86 2.09477 103.93 0.884766 106.72 0.884766C108.35 0.884766 109.56 1.27478 110.61 1.27478C111.13 1.27478 111.96 1.19477 112.87 0.884766L113.26 2.92474C112.41 3.31474 111.38 3.42474 110.69 3.42474C109.03 3.42474 108.18 3.03479 106.72 3.03479C105.29 3.03479 104.49 3.66475 104.49 5.24475V8.11475C105.4 7.14475 106.81 6.40479 108.63 6.40479C112.39 6.39478 114.46 9.48474 114.46 13.2947ZM111.67 13.2947C111.67 10.0647 110.4 8.49475 108.19 8.49475C106.62 8.49475 105.38 9.18474 104.47 10.2347V13.4847C104.47 16.1647 105.38 18.5048 108.14 18.5048C110.6 18.5048 111.67 16.3547 111.67 13.2947Z" fill="white"/>
<path d="M130.82 14.4848C130.82 18.0448 128.39 20.6048 124.48 20.6048C120.59 20.6048 118.22 18.1448 118.22 14.7548C118.22 13.5148 118.52 12.0548 119.38 10.6748L121.61 11.4248C121.2 12.2848 120.95 13.4348 120.95 14.4548C120.95 16.7448 122 18.4548 124.48 18.4548C127.1 18.4548 128.04 16.6348 128.04 14.4248C128.04 8.7448 122.83 7.88484 122.83 1.21484H125.53C125.53 6.94484 130.82 8.2748 130.82 14.4848Z" fill="white"/>
</svg>
